<svg width="60" height="60" viewBox="0 0 60 60" fill="none" xmlns="http://www.w3.org/2000/svg">
<rect opacity="0.03" x="60" width="60" height="60" rx="16" transform="rotate(90 60 0)" fill="white"/>
<g clip-path="url(#clip0_1_404)">
<path d="M29.6226 25.2221C28.7466 25.2221 27.3906 24.2261 25.9626 24.2621C24.0786 24.2861 22.3506 25.3541 21.3786 27.0461C19.4226 30.4421 20.8746 35.4581 22.7826 38.2181C23.7186 39.5621 24.8226 41.0741 26.2866 41.0261C27.6906 40.9661 28.2186 40.1141 29.9226 40.1141C31.6146 40.1141 32.0946 41.0261 33.5826 40.9901C35.0946 40.9661 36.0546 39.6221 36.9786 38.2661C38.0466 36.7061 38.4906 35.1941 38.5146 35.1101C38.4786 35.0981 35.5746 33.9821 35.5386 30.6221C35.5146 27.8141 37.8306 26.4701 37.9386 26.4101C36.6186 24.4781 34.5906 24.2621 33.8826 24.2141C32.0346 24.0701 30.4866 25.2221 29.6226 25.2221ZM32.7426 22.3901C33.5226 21.4541 34.0386 20.1461 33.8946 18.8501C32.7786 18.8981 31.4346 19.5941 30.6306 20.5301C29.9106 21.3581 29.2866 22.6901 29.4546 23.9621C30.6906 24.0581 31.9626 23.3261 32.7426 22.3901Z" fill="white"/>
</g>
<defs>
<clipPath id="clip0_1_404">
<rect width="24" height="24" fill="white" transform="translate(18 18)"/>
</clipPath>
</defs>
</svg>
