<svg width="230" height="80" viewBox="0 0 230 80" fill="none" xmlns="http://www.w3.org/2000/svg">
<path fill-rule="evenodd" clip-rule="evenodd" d="M15.3652 34.431C15.4286 34.6862 15.4603 35.0054 15.4603 35.3886C15.4603 35.7559 15.4286 36.0745 15.3652 36.3462H14.4177C14.4811 36.602 14.5128 36.9212 14.5128 37.3038C14.5128 37.6711 14.4811 37.9903 14.4177 38.2614H9.6809C9.61749 37.9903 9.58639 37.6711 9.58639 37.3038C9.58639 36.9212 9.6181 36.602 9.6809 36.3462H8.73342C8.67001 36.0751 8.6383 35.7559 8.6383 35.3886C8.6383 35.0054 8.67001 34.6862 8.73342 34.431H7.78593C7.72252 34.1599 7.69082 33.8407 7.69082 33.4734C7.69082 33.0902 7.72252 32.7716 7.78593 32.5159H8.73342C8.67001 32.2447 8.6383 31.9255 8.6383 31.5583C8.6383 31.175 8.67001 30.8558 8.73342 30.6007H9.6809C9.61749 30.3295 9.58639 30.0103 9.58639 29.6431C9.58639 29.2598 9.6181 28.9412 9.6809 28.6855H14.4177C14.4811 28.9412 14.5128 29.2598 14.5128 29.6431C14.5128 30.0103 14.4811 30.3295 14.4177 30.6007H15.3652C15.4286 30.8558 15.4603 31.175 15.4603 31.5583C15.4603 31.9255 15.4286 32.2441 15.3652 32.5159H13.4702C13.4068 32.2447 13.3757 31.9255 13.3757 31.5583C13.3757 31.175 13.4074 30.8558 13.4702 30.6007H10.6284C10.6918 30.8558 10.7235 31.175 10.7235 31.5583C10.7235 31.9255 10.6918 32.2441 10.6284 32.5159H9.6809C9.74431 32.7716 9.77601 33.0902 9.77601 33.4734C9.77601 33.8407 9.74431 34.1599 9.6809 34.431H10.6284C10.6918 34.6862 10.7235 35.0054 10.7235 35.3886C10.7235 35.7559 10.6918 36.0745 10.6284 36.3462H13.4702C13.4068 36.0751 13.3757 35.7559 13.3757 35.3886C13.3757 35.0054 13.4074 34.6862 13.4702 34.431H15.3652ZM14.8055 46.8404C14.8042 47.5934 15.3969 48.193 16.1426 48.1924C16.8827 48.1924 17.4784 47.5959 17.4802 46.8552C17.4821 46.0849 16.8992 45.4835 16.1505 45.4816C15.3975 45.4792 14.8073 46.0751 14.8055 46.8404ZM16.1426 42.2896C19.3356 42.2896 22.528 42.2896 25.7204 42.2896C25.8826 42.2896 26.0454 42.2958 26.207 42.2859C26.8831 42.2447 27.4294 41.9538 27.8361 41.4029C28.1464 40.982 28.2482 40.5014 28.2482 39.9875C28.247 36.2094 28.2476 32.432 28.2476 28.654C28.2476 28.1327 28.2501 27.6114 28.2464 27.0901C28.2421 26.4671 28.0409 25.9236 27.5904 25.4855C27.1404 25.0486 26.5959 24.8779 25.9795 24.8779C19.4222 24.8803 12.8648 24.8791 6.3074 24.8797C6.22387 24.8797 6.14034 24.8779 6.05681 24.884C5.40504 24.9352 4.87398 25.2155 4.47158 25.7399C4.13258 26.1824 4.03686 26.6926 4.03686 27.2374C4.0393 31.472 4.03808 35.7066 4.03869 39.9412C4.03869 40.0552 4.04234 40.1692 4.05027 40.2839C4.08563 40.7867 4.26733 41.2273 4.60815 41.597C5.04897 42.074 5.5977 42.2909 6.23972 42.2909C9.54066 42.289 12.8416 42.2903 16.1419 42.2903L16.1426 42.2896ZM16.1346 51.3862C12.2587 51.3862 8.38344 51.3837 4.50755 51.3887C3.61006 51.3899 2.7766 51.1779 2.02178 50.6843C1.2188 50.1593 0.643849 49.4445 0.297536 48.5393C0.0829199 47.9792 0.00121941 47.3993 0.00121941 46.8046C0.000609705 39.6559 0.00121941 32.5072 0 25.3585C0 24.123 0.384724 23.0409 1.23953 22.1443C1.80046 21.5558 2.47662 21.1609 3.25948 20.952C3.66128 20.8447 4.06856 20.8022 4.48316 20.8022C12.249 20.8034 20.0148 20.8028 27.7806 20.8034C29.3616 20.8034 30.623 21.4437 31.5315 22.7569C32.0595 23.5203 32.2839 24.3855 32.2845 25.3117C32.2857 26.9946 32.2851 28.6774 32.2851 30.3603C32.2851 35.8459 32.2845 41.332 32.2857 46.8176C32.2857 47.9188 31.9766 48.9103 31.2797 49.7649C30.6779 50.5032 29.917 50.9949 28.9994 51.2389C28.583 51.3499 28.1604 51.3874 27.7312 51.3868C23.8651 51.3856 19.9995 51.3856 16.134 51.3856L16.1346 51.3862ZM24.8394 36.3456C24.9028 36.6014 24.9345 36.9206 24.9345 37.3032C24.9345 37.6705 24.9028 37.9897 24.8394 38.2608H17.2601C17.1967 37.9897 17.165 37.6705 17.165 37.3032C17.165 36.9206 17.1967 36.6014 17.2601 36.3456H24.8394Z" fill="white"/>
<path d="M39.0827 10.6068V61.5842" stroke="white" stroke-width="0.856306" stroke-miterlimit="2.61313"/>
<path d="M63.0082 29.1642C62.22 28.3154 61.452 27.7495 60.7042 27.4665C59.9766 27.1836 59.2389 27.0421 58.4911 27.0421C57.3795 27.0421 56.369 27.2442 55.4595 27.6484C54.5703 28.0324 53.8023 28.5781 53.1555 29.2855C52.5088 29.9726 52.0035 30.7811 51.6397 31.7108C51.2961 32.6404 51.1244 33.6409 51.1244 34.712C51.1244 35.864 51.2961 36.9251 51.6397 37.8952C52.0035 38.8653 52.5088 39.7041 53.1555 40.4114C53.8023 41.1188 54.5703 41.6746 55.4595 42.0788C56.369 42.483 57.3795 42.6851 58.4911 42.6851C59.3602 42.6851 60.1989 42.483 61.0074 42.0788C61.836 41.6544 62.604 40.9874 63.3114 40.078L66.4642 42.3213C65.4941 43.6552 64.3118 44.6253 62.9173 45.2317C61.5227 45.838 60.0372 46.1411 58.4608 46.1411C56.8035 46.1411 55.2776 45.8784 53.8831 45.3529C52.5088 44.8072 51.3164 44.0493 50.3058 43.0792C49.3155 42.0889 48.5374 40.9066 47.9715 39.5323C47.4056 38.1579 47.1227 36.632 47.1227 34.9546C47.1227 33.2367 47.4056 31.6804 47.9715 30.2859C48.5374 28.8712 49.3155 27.6686 50.3058 26.6783C51.3164 25.688 52.5088 24.9301 53.8831 24.4046C55.2776 23.8589 56.8035 23.5861 58.4608 23.5861C59.916 23.5861 61.26 23.8488 62.4928 24.3743C63.7459 24.8796 64.908 25.7486 65.9792 26.9815L63.0082 29.1642ZM67.967 38.3196C67.967 37.1676 68.1691 36.1268 68.5733 35.1971C68.9977 34.2472 69.5636 33.4388 70.271 32.7718C70.9784 32.1049 71.8171 31.5895 72.7872 31.2257C73.7573 30.8619 74.7881 30.68 75.8795 30.68C76.9708 30.68 78.0016 30.8619 78.9717 31.2257C79.9418 31.5895 80.7805 32.1049 81.4879 32.7718C82.1953 33.4388 82.7511 34.2472 83.1553 35.1971C83.5797 36.1268 83.7919 37.1676 83.7919 38.3196C83.7919 39.4716 83.5797 40.5226 83.1553 41.4725C82.7511 42.4022 82.1953 43.2005 81.4879 43.8675C80.7805 44.5344 79.9418 45.0498 78.9717 45.4136C78.0016 45.7774 76.9708 45.9593 75.8795 45.9593C74.7881 45.9593 73.7573 45.7774 72.7872 45.4136C71.8171 45.0498 70.9784 44.5344 70.271 43.8675C69.5636 43.2005 68.9977 42.4022 68.5733 41.4725C68.1691 40.5226 67.967 39.4716 67.967 38.3196ZM71.6049 38.3196C71.6049 38.8855 71.6959 39.4312 71.8777 39.9567C72.0799 40.4822 72.3628 40.947 72.7266 41.3512C73.1106 41.7554 73.5653 42.0788 74.0908 42.3213C74.6163 42.5639 75.2125 42.6851 75.8795 42.6851C76.5464 42.6851 77.1426 42.5639 77.6681 42.3213C78.1936 42.0788 78.6382 41.7554 79.002 41.3512C79.386 40.947 79.6689 40.4822 79.8508 39.9567C80.0529 39.4312 80.154 38.8855 80.154 38.3196C80.154 37.7537 80.0529 37.208 79.8508 36.6826C79.6689 36.1571 79.386 35.6923 79.002 35.288C78.6382 34.8838 78.1936 34.5605 77.6681 34.3179C77.1426 34.0754 76.5464 33.9541 75.8795 33.9541C75.2125 33.9541 74.6163 34.0754 74.0908 34.3179C73.5653 34.5605 73.1106 34.8838 72.7266 35.288C72.3628 35.6923 72.0799 36.1571 71.8777 36.6826C71.6959 37.208 71.6049 37.7537 71.6049 38.3196ZM87.0464 31.0438H90.5024V33.3175H90.563C90.8864 32.6303 91.4018 32.024 92.1091 31.4985C92.8367 30.9529 93.8068 30.68 95.0195 30.68C97.3033 30.68 98.8191 31.5794 99.5669 33.3781C100.092 32.4484 100.749 31.7714 101.537 31.347C102.326 30.9023 103.265 30.68 104.357 30.68C105.327 30.68 106.145 30.8417 106.812 31.1651C107.479 31.4884 108.015 31.9331 108.419 32.499C108.844 33.0649 109.147 33.7318 109.329 34.4998C109.51 35.2476 109.601 36.056 109.601 36.9251V45.5955H105.964V37.3495C105.964 36.9049 105.923 36.4805 105.842 36.0763C105.761 35.6518 105.62 35.288 105.418 34.9849C105.216 34.6615 104.943 34.4089 104.599 34.227C104.256 34.0451 103.811 33.9541 103.265 33.9541C102.7 33.9541 102.214 34.0653 101.81 34.2876C101.426 34.4897 101.103 34.7727 100.84 35.1365C100.598 35.48 100.416 35.8843 100.294 36.3491C100.193 36.7937 100.143 37.2485 100.143 37.7133V45.5955H96.5049V36.9251C96.5049 36.0156 96.3129 35.2981 95.9289 34.7727C95.5449 34.227 94.9083 33.9541 94.019 33.9541C93.4127 33.9541 92.8974 34.0552 92.4729 34.2573C92.0687 34.4594 91.7251 34.7322 91.4422 35.0758C91.1794 35.4194 90.9874 35.8135 90.8662 36.2581C90.7449 36.7028 90.6843 37.1676 90.6843 37.6527V45.5955H87.0464V31.0438ZM113.576 31.0438H117.032V33.2266H117.093C117.619 32.3373 118.326 31.6905 119.215 31.2863C120.104 30.8821 121.064 30.68 122.095 30.68C123.207 30.68 124.207 30.8821 125.096 31.2863C125.986 31.6703 126.744 32.2059 127.37 32.8931C127.997 33.5802 128.472 34.3887 128.795 35.3184C129.118 36.248 129.28 37.2485 129.28 38.3196C129.28 39.3908 129.108 40.3912 128.765 41.3209C128.421 42.2506 127.936 43.059 127.309 43.7462C126.703 44.4333 125.965 44.979 125.096 45.3832C124.227 45.7672 123.277 45.9593 122.247 45.9593C121.56 45.9593 120.953 45.8885 120.428 45.747C119.902 45.6056 119.437 45.4237 119.033 45.2014C118.629 44.979 118.285 44.7466 118.003 44.5041C117.72 44.2413 117.487 43.9887 117.305 43.7462H117.214V52.5075H113.576V31.0438ZM125.642 38.3196C125.642 37.7537 125.541 37.208 125.339 36.6826C125.157 36.1571 124.874 35.6923 124.49 35.288C124.126 34.8838 123.682 34.5605 123.156 34.3179C122.631 34.0754 122.035 33.9541 121.368 33.9541C120.701 33.9541 120.104 34.0754 119.579 34.3179C119.053 34.5605 118.599 34.8838 118.215 35.288C117.851 35.6923 117.568 36.1571 117.366 36.6826C117.184 37.208 117.093 37.7537 117.093 38.3196C117.093 38.8855 117.184 39.4312 117.366 39.9567C117.568 40.4822 117.851 40.947 118.215 41.3512C118.599 41.7554 119.053 42.0788 119.579 42.3213C120.104 42.5639 120.701 42.6851 121.368 42.6851C122.035 42.6851 122.631 42.5639 123.156 42.3213C123.682 42.0788 124.126 41.7554 124.49 41.3512C124.874 40.947 125.157 40.4822 125.339 39.9567C125.541 39.4312 125.642 38.8855 125.642 38.3196ZM131.944 38.3196C131.944 37.1676 132.146 36.1268 132.551 35.1971C132.975 34.2472 133.541 33.4388 134.248 32.7718C134.956 32.1049 135.794 31.5895 136.765 31.2257C137.735 30.8619 138.765 30.68 139.857 30.68C140.948 30.68 141.979 30.8619 142.949 31.2257C143.919 31.5895 144.758 32.1049 145.465 32.7718C146.173 33.4388 146.728 34.2472 147.133 35.1971C147.557 36.1268 147.769 37.1676 147.769 38.3196C147.769 39.4716 147.557 40.5226 147.133 41.4725C146.728 42.4022 146.173 43.2005 145.465 43.8675C144.758 44.5344 143.919 45.0498 142.949 45.4136C141.979 45.7774 140.948 45.9593 139.857 45.9593C138.765 45.9593 137.735 45.7774 136.765 45.4136C135.794 45.0498 134.956 44.5344 134.248 43.8675C133.541 43.2005 132.975 42.4022 132.551 41.4725C132.146 40.5226 131.944 39.4716 131.944 38.3196ZM135.582 38.3196C135.582 38.8855 135.673 39.4312 135.855 39.9567C136.057 40.4822 136.34 40.947 136.704 41.3512C137.088 41.7554 137.543 42.0788 138.068 42.3213C138.594 42.5639 139.19 42.6851 139.857 42.6851C140.524 42.6851 141.12 42.5639 141.645 42.3213C142.171 42.0788 142.615 41.7554 142.979 41.3512C143.363 40.947 143.646 40.4822 143.828 39.9567C144.03 39.4312 144.131 38.8855 144.131 38.3196C144.131 37.7537 144.03 37.208 143.828 36.6826C143.646 36.1571 143.363 35.6923 142.979 35.288C142.615 34.8838 142.171 34.5605 141.645 34.3179C141.12 34.0754 140.524 33.9541 139.857 33.9541C139.19 33.9541 138.594 34.0754 138.068 34.3179C137.543 34.5605 137.088 34.8838 136.704 35.288C136.34 35.6923 136.057 36.1571 135.855 36.6826C135.673 37.208 135.582 37.7537 135.582 38.3196ZM158.936 35.0758C158.229 34.0855 157.279 33.5903 156.086 33.5903C155.601 33.5903 155.126 33.7116 154.662 33.9541C154.197 34.1967 153.964 34.5908 153.964 35.1365C153.964 35.5811 154.156 35.9045 154.54 36.1066C154.924 36.3087 155.409 36.4805 155.995 36.6219C156.582 36.7634 157.208 36.915 157.875 37.0767C158.562 37.2182 159.199 37.4506 159.785 37.7739C160.371 38.0771 160.856 38.5015 161.24 39.0472C161.624 39.5929 161.816 40.3407 161.816 41.2906C161.816 42.1597 161.624 42.8973 161.24 43.5037C160.876 44.0898 160.391 44.5647 159.785 44.9285C159.199 45.2923 158.532 45.555 157.784 45.7167C157.036 45.8784 156.289 45.9593 155.541 45.9593C154.409 45.9593 153.368 45.7976 152.418 45.4742C151.468 45.1508 150.619 44.5647 149.872 43.7159L152.297 41.4422C152.762 41.9677 153.257 42.4022 153.782 42.7458C154.328 43.0691 154.985 43.2308 155.753 43.2308C156.016 43.2308 156.289 43.2005 156.571 43.1399C156.854 43.0792 157.117 42.9782 157.36 42.8367C157.602 42.6952 157.794 42.5234 157.936 42.3213C158.097 42.099 158.178 41.8464 158.178 41.5634C158.178 41.0582 157.986 40.6843 157.602 40.4417C157.218 40.1992 156.733 40.0072 156.147 39.8657C155.561 39.7041 154.924 39.5626 154.237 39.4413C153.57 39.2998 152.944 39.0876 152.358 38.8047C151.771 38.5015 151.286 38.0872 150.902 37.5617C150.518 37.0363 150.326 36.3087 150.326 35.379C150.326 34.5706 150.488 33.8733 150.811 33.2872C151.155 32.6809 151.6 32.1857 152.145 31.8017C152.691 31.4177 153.318 31.1348 154.025 30.9529C154.732 30.771 155.45 30.68 156.177 30.68C157.147 30.68 158.107 30.8518 159.057 31.1954C160.007 31.5188 160.775 32.0847 161.361 32.8931L158.936 35.0758ZM167.556 39.5929C167.677 40.6843 168.102 41.5331 168.829 42.1394C169.557 42.7458 170.436 43.0489 171.467 43.0489C172.376 43.0489 173.134 42.867 173.74 42.5032C174.367 42.1192 174.913 41.6443 175.378 41.0784L177.985 43.0489C177.136 44.0999 176.186 44.8477 175.135 45.2923C174.084 45.7369 172.983 45.9593 171.831 45.9593C170.739 45.9593 169.708 45.7774 168.738 45.4136C167.768 45.0498 166.929 44.5344 166.222 43.8675C165.515 43.2005 164.949 42.4022 164.524 41.4725C164.12 40.5226 163.918 39.4716 163.918 38.3196C163.918 37.1676 164.12 36.1268 164.524 35.1971C164.949 34.2472 165.515 33.4388 166.222 32.7718C166.929 32.1049 167.768 31.5895 168.738 31.2257C169.708 30.8619 170.739 30.68 171.831 30.68C172.841 30.68 173.761 30.8619 174.589 31.2257C175.438 31.5693 176.156 32.0746 176.742 32.7415C177.348 33.4085 177.813 34.2371 178.136 35.2274C178.48 36.1975 178.652 37.3192 178.652 38.5925V39.5929H167.556ZM175.014 36.8645C174.994 35.7933 174.66 34.9546 174.013 34.3482C173.367 33.7217 172.467 33.4085 171.315 33.4085C170.224 33.4085 169.355 33.7217 168.708 34.3482C168.082 34.9748 167.698 35.8135 167.556 36.8645H175.014ZM182.054 31.0438H185.692V33.3478H185.752C186.156 32.499 186.732 31.8421 187.48 31.3773C188.228 30.9124 189.087 30.68 190.057 30.68C190.279 30.68 190.492 30.7002 190.694 30.7406C190.916 30.7811 191.138 30.8316 191.361 30.8922V34.4089C191.058 34.328 190.754 34.2674 190.451 34.227C190.168 34.1663 189.885 34.136 189.602 34.136C188.754 34.136 188.066 34.2977 187.541 34.6211C187.036 34.9242 186.641 35.2779 186.359 35.6821C186.096 36.0864 185.914 36.4906 185.813 36.8948C185.732 37.299 185.692 37.6022 185.692 37.8043V45.5955H182.054V31.0438ZM218.978 37.4102C218.978 38.5824 218.827 39.694 218.524 40.7449C218.241 41.7959 217.776 42.7256 217.129 43.534C216.502 44.3222 215.674 44.9588 214.643 45.4439C213.612 45.9087 212.359 46.1411 210.884 46.1411C209.409 46.1411 208.155 45.9087 207.125 45.4439C206.094 44.9588 205.255 44.3222 204.609 43.534C203.982 42.7256 203.517 41.7959 203.214 40.7449C202.931 39.694 202.79 38.5824 202.79 37.4102V24.1318H205.336V37.0464C205.336 37.9154 205.427 38.7542 205.609 39.5626C205.791 40.371 206.094 41.0885 206.518 41.715C206.943 42.3415 207.509 42.8468 208.216 43.2308C208.923 43.5946 209.813 43.7765 210.884 43.7765C211.955 43.7765 212.844 43.5946 213.552 43.2308C214.259 42.8468 214.825 42.3415 215.249 41.715C215.674 41.0885 215.977 40.371 216.159 39.5626C216.341 38.7542 216.432 37.9154 216.432 37.0464V24.1318H218.978V37.4102ZM224.226 24.1318H226.773V45.5955H224.226V24.1318Z" fill="white"/>
<path opacity="0.08" fill-rule="evenodd" clip-rule="evenodd" d="M111.188 35.6467C111.354 36.314 111.437 37.1488 111.437 38.1513C111.437 39.1119 111.354 39.9452 111.188 40.656H108.71C108.876 41.3248 108.959 42.1597 108.959 43.1606C108.959 44.1212 108.876 44.9561 108.71 45.6652H96.3207C96.1549 44.9561 96.0736 44.1212 96.0736 43.1606C96.0736 42.1597 96.1565 41.3248 96.3207 40.656H93.8426C93.6767 39.9468 93.5938 39.1119 93.5938 38.1513C93.5938 37.1488 93.6767 36.314 93.8426 35.6467H91.3644C91.1985 34.9375 91.1156 34.1027 91.1156 33.1421C91.1156 32.1396 91.1985 31.3063 91.3644 30.6374H93.8426C93.6767 29.9283 93.5938 29.0934 93.5938 28.1328C93.5938 27.1303 93.6767 26.2954 93.8426 25.6282H96.3207C96.1549 24.919 96.0736 24.0841 96.0736 23.1235C96.0736 22.121 96.1565 21.2878 96.3207 20.6189H108.71C108.876 21.2878 108.959 22.121 108.959 23.1235C108.959 24.0841 108.876 24.919 108.71 25.6282H111.188C111.354 26.2954 111.437 27.1303 111.437 28.1328C111.437 29.0934 111.354 29.9267 111.188 30.6374H106.232C106.066 29.9283 105.985 29.0934 105.985 28.1328C105.985 27.1303 106.068 26.2954 106.232 25.6282H98.7989C98.9648 26.2954 99.0477 27.1303 99.0477 28.1328C99.0477 29.0934 98.9648 29.9267 98.7989 30.6374H96.3207C96.4866 31.3063 96.5695 32.1396 96.5695 33.1421C96.5695 34.1027 96.4866 34.9375 96.3207 35.6467H98.7989C98.9648 36.314 99.0477 37.1488 99.0477 38.1513C99.0477 39.1119 98.9648 39.9452 98.7989 40.656H106.232C106.066 39.9468 105.985 39.1119 105.985 38.1513C105.985 37.1488 106.068 36.314 106.232 35.6467H111.188ZM109.724 68.1038C109.721 70.0733 111.271 71.6415 113.221 71.6399C115.157 71.6399 116.715 70.0798 116.72 68.1425C116.725 66.1278 115.2 64.5547 113.242 64.5499C111.273 64.5435 109.729 66.102 109.724 68.1038ZM113.221 56.2011C121.573 56.2011 129.923 56.2011 138.273 56.2011C138.697 56.2011 139.123 56.2173 139.545 56.1915C141.314 56.0835 142.743 55.3227 143.806 53.8819C144.618 52.781 144.884 51.5239 144.884 50.1797C144.881 40.2982 144.883 30.4182 144.883 20.5367C144.883 19.1732 144.889 17.8097 144.88 16.4461C144.868 14.8167 144.342 13.3951 143.164 12.2492C141.987 11.1065 140.563 10.66 138.95 10.66C121.799 10.6664 104.648 10.6632 87.4972 10.6648C87.2788 10.6648 87.0603 10.66 86.8418 10.6761C85.1371 10.8099 83.7481 11.5432 82.6956 12.9148C81.8089 14.072 81.5585 15.4066 81.5585 16.8313C81.5649 27.9072 81.5617 38.983 81.5633 50.0588C81.5633 50.357 81.5729 50.6552 81.5936 50.9549C81.6861 52.2701 82.1613 53.4225 83.0528 54.3895C84.2058 55.637 85.641 56.2044 87.3202 56.2044C95.954 56.1995 104.588 56.2027 113.22 56.2027L113.221 56.2011ZM113.201 79.9935C103.063 79.9935 92.9272 79.9871 82.7897 80C80.4423 80.0032 78.2623 79.4488 76.288 78.1578C74.1878 76.7846 72.684 74.915 71.7782 72.5473C71.2169 71.0823 71.0032 69.5656 71.0032 68.0103C71.0016 49.3126 71.0032 30.6149 71 11.9172C71 8.68563 72.0063 5.85543 74.242 3.51035C75.7092 1.97115 77.4777 0.938028 79.5253 0.39165C80.5762 0.111208 81.6415 0 82.7259 0C103.038 0.00322347 123.349 0.00160996 143.661 0.0032217C147.796 0.0032217 151.096 1.67781 153.472 5.11242C154.853 7.10935 155.44 9.37223 155.441 11.7947C155.444 16.1963 155.443 20.5979 155.443 24.9996C155.443 39.3472 155.441 53.6965 155.444 68.0442C155.444 70.9243 154.636 73.5176 152.813 75.7531C151.239 77.6839 149.249 78.9701 146.849 79.6083C145.76 79.8985 144.655 79.9968 143.532 79.9951C133.42 79.9919 123.31 79.9919 113.199 79.9919L113.201 79.9935ZM135.968 40.6544C136.134 41.3232 136.217 42.1581 136.217 43.159C136.217 44.1196 136.134 44.9545 135.968 45.6636H116.145C115.979 44.9545 115.896 44.1196 115.896 43.159C115.896 42.1581 115.979 41.3232 116.145 40.6544H135.968Z" fill="url(#paint0_linear_1_583)"/>
<defs>
<linearGradient id="paint0_linear_1_583" x1="74.4898" y1="32.5925" x2="154.674" y2="32.7053" gradientUnits="userSpaceOnUse">
<stop stop-color="#E54130"/>
<stop offset="1" stop-color="#753ADF" stop-opacity="0.9"/>
</linearGradient>
</defs>
</svg>
