<svg width="60" height="60" viewBox="0 0 60 60" fill="none" xmlns="http://www.w3.org/2000/svg">
<rect opacity="0.03" x="60" width="60" height="60" rx="16" transform="rotate(90 60 0)" fill="white"/>
<g clip-path="url(#clip0_1_409)">
<path d="M39.6113 37.268C38.9075 36.9798 38.6064 36.5972 38.6355 36.0265C38.6655 35.3603 38.2876 34.8724 38.1081 34.6796C38.2165 34.2654 38.5334 32.8324 38.1084 31.5878C37.6517 30.2556 36.2573 28.221 34.8186 26.2209C34.2296 25.3996 34.2017 24.5068 34.1695 23.4729C34.1387 22.4869 34.1039 21.3692 33.554 20.1267C32.9562 18.7738 31.7565 17.998 30.2624 17.998C29.3736 17.998 28.4613 18.2758 27.7592 18.76C26.3216 19.7522 26.5116 21.9154 26.6373 23.3469C26.6546 23.5429 26.6708 23.728 26.6802 23.8861C26.764 25.2881 26.6878 26.0269 26.5882 26.2515C26.5237 26.3983 26.2064 26.816 25.8707 27.2582C25.5234 27.7155 25.1297 28.2339 24.807 28.717C24.422 29.2983 24.1112 30.1868 23.8106 31.046C23.5907 31.6747 23.3829 32.2686 23.1807 32.6234C22.7974 33.3062 22.8928 33.9427 22.9724 34.237C22.8273 34.3378 22.6177 34.5362 22.4407 34.9103C22.2268 35.3667 21.7929 35.612 20.8905 35.7855C20.4758 35.8703 20.1898 36.0447 20.0403 36.3037C19.8227 36.6807 19.9412 37.1544 20.0493 37.4782C20.2091 37.9541 20.1095 38.2553 19.9286 38.8022C19.8869 38.9284 19.8396 39.0713 19.7916 39.2289C19.7162 39.4777 19.7434 39.7038 19.8724 39.9011C20.2132 40.4221 21.2076 40.6058 22.2314 40.7267C22.8426 40.7992 23.5117 41.0437 24.1587 41.2803C24.7927 41.5119 25.4483 41.7515 26.0442 41.8242C26.1348 41.8357 26.2245 41.8414 26.3109 41.8414C27.2107 41.8414 27.6172 41.2444 27.7461 40.9991C28.0693 40.9332 29.1839 40.722 30.3327 40.6936C31.4796 40.6609 32.5894 40.8874 32.9038 40.9578C33.0026 41.147 33.2631 41.579 33.6784 41.8017C33.9067 41.9265 34.2244 41.998 34.5498 41.998C34.5498 41.998 34.5498 41.998 34.5498 41.998C34.8973 41.998 35.5584 41.9158 36.0816 41.3654C36.6035 40.8124 37.9074 40.1064 38.8595 39.5909C39.0719 39.4758 39.2707 39.3682 39.445 39.271C39.9799 38.9745 40.2717 38.5509 40.2457 38.1087C40.224 37.7415 39.9809 37.4193 39.6113 37.268ZM27.7709 37.1615C27.7044 36.6925 27.1011 36.2274 26.4024 35.6889C25.8311 35.2484 25.1836 34.7493 25.0052 34.3266C24.6365 33.4546 24.9271 31.9212 25.4338 31.1317C25.6842 30.7363 25.8887 30.1368 26.0865 29.557C26.3001 28.931 26.521 28.2837 26.768 28.0003C27.1591 27.5579 27.5206 26.6971 27.5847 26.0188C27.951 26.3685 28.5192 26.8122 29.0441 26.8122C29.1249 26.8122 29.2034 26.8016 29.2784 26.7805C29.6375 26.6768 30.1658 26.3715 30.6766 26.0764C31.117 25.822 31.6601 25.5081 31.8645 25.4796C32.2149 25.9827 34.251 30.4885 34.459 31.9355C34.6237 33.0805 34.4498 34.0269 34.3623 34.3976C34.292 34.388 34.2081 34.3803 34.12 34.3803C33.5529 34.3803 33.4027 34.6898 33.3636 34.8747C33.263 35.3549 33.2524 36.8905 33.2513 37.2356C33.0463 37.4961 32.0092 38.723 30.5203 38.9436C29.9139 39.0317 29.3476 39.0764 28.8372 39.0764C28.4009 39.0764 28.1225 39.0427 28.0069 39.0252L27.2588 38.1691C27.5538 38.0235 27.8487 37.7161 27.7709 37.1615ZM28.7203 23.0458C28.697 23.0559 28.674 23.0667 28.6514 23.0782C28.6491 23.0275 28.6438 22.9761 28.6357 22.9245C28.5541 22.4544 28.2423 22.1131 27.8946 22.1131C27.8688 22.1131 27.8429 22.1151 27.8145 22.1194C27.6077 22.1539 27.4454 22.3093 27.3565 22.5296C27.4345 22.0461 27.7084 21.6882 28.0334 21.6882C28.415 21.6882 28.7374 22.2025 28.7374 22.8112C28.7374 22.888 28.7318 22.9643 28.7203 23.0458ZM31.6858 23.4083C31.7207 23.2971 31.7396 23.1767 31.7396 23.0517C31.7396 22.4998 31.3895 22.0674 30.9424 22.0674C30.5055 22.0674 30.1501 22.5089 30.1501 23.0517C30.1501 23.0887 30.1519 23.1258 30.1554 23.1627C30.1322 23.1538 30.1097 23.1452 30.0876 23.1369C30.0373 22.9846 30.0119 22.8257 30.0119 22.6635C30.0119 22.0036 30.4337 21.4666 30.9523 21.4666C31.4707 21.4666 31.8926 22.0036 31.8926 22.6635C31.8926 22.9381 31.8168 23.2001 31.6858 23.4083ZM31.3035 24.6929C31.296 24.7262 31.2801 24.741 31.1043 24.8324C31.0155 24.8786 30.905 24.9362 30.7668 25.0204L30.6744 25.0763C30.3032 25.3014 29.4339 25.8285 29.1979 25.8594C29.0376 25.881 28.9385 25.8188 28.7155 25.6673C28.6652 25.6331 28.6117 25.5968 28.5547 25.5602C28.1528 25.2965 27.8943 25.006 27.8651 24.8925C27.9962 24.7912 28.3209 24.5378 28.4872 24.3877C28.8247 24.0739 29.1643 23.863 29.3324 23.863C29.3413 23.863 29.3493 23.8636 29.3576 23.8652C29.5551 23.9001 30.0423 24.0945 30.3981 24.2365C30.5626 24.3021 30.7046 24.3587 30.8046 24.3946C31.1194 24.5027 31.2835 24.6411 31.3035 24.6929ZM34.1321 39.3581C34.3097 38.557 34.5143 37.4672 34.4812 36.8247C34.4735 36.6787 34.4606 36.5198 34.4481 36.3662C34.4247 36.079 34.39 35.6521 34.4258 35.5255C34.4329 35.5222 34.4408 35.5194 34.4495 35.5169C34.451 35.8842 34.5308 36.6169 35.1167 36.8724C35.2913 36.9486 35.4909 36.9871 35.7098 36.9871C36.2967 36.9871 36.948 36.6992 37.2147 36.4325C37.3718 36.2754 37.5039 36.0832 37.5964 35.9311C37.6167 35.9903 37.6291 36.0677 37.6226 36.1675C37.5877 36.7093 37.851 37.428 38.3521 37.6929L38.425 37.7312C38.6035 37.8249 39.0775 38.0738 39.0852 38.1918C39.0851 38.1919 39.0812 38.2057 39.0547 38.2303C38.936 38.3388 38.5181 38.5522 38.1139 38.7586C37.397 39.1247 36.5844 39.5396 36.2194 39.9234C35.7056 40.4642 35.1244 40.8274 34.7734 40.8274C34.7311 40.8274 34.6927 40.8221 34.6584 40.8112C34.2773 40.6924 33.9635 40.1424 34.1321 39.3581ZM21.1397 37.3143C21.1008 37.1324 21.0701 36.9888 21.1031 36.8497C21.127 36.7466 21.6359 36.6361 21.8532 36.589C22.1588 36.5226 22.4748 36.4541 22.6814 36.3287C22.9608 36.1594 23.1122 35.8473 23.2456 35.5718C23.3422 35.3727 23.442 35.1668 23.5608 35.0992C23.5675 35.0952 23.5777 35.0907 23.5972 35.0907C23.8197 35.0907 24.2864 35.5583 24.5554 35.9769C24.6236 36.0824 24.75 36.2938 24.8962 36.5386C25.3335 37.2703 25.9322 38.2724 26.2449 38.6082C26.5267 38.9102 26.9829 39.4906 26.8707 39.9885C26.7885 40.3748 26.3512 40.6889 26.248 40.7584C26.2105 40.7669 26.1642 40.7712 26.1097 40.7712C25.5112 40.7712 24.3264 40.2733 23.6899 40.0057L23.5957 39.9662C23.2403 39.8171 22.66 39.7232 22.0989 39.6324C21.6524 39.5601 21.041 39.4612 20.9396 39.3718C20.8575 39.2797 20.9528 38.9801 21.0368 38.7158C21.0973 38.5258 21.1598 38.3294 21.194 38.1238C21.2426 37.7958 21.1855 37.5288 21.1397 37.3143Z" fill="white"/>
</g>
<defs>
<clipPath id="clip0_1_409">
<rect width="24" height="24" fill="white" transform="translate(18 17.998)"/>
</clipPath>
</defs>
</svg>
