<svg width="184" height="24" viewBox="0 0 184 24" fill="none" xmlns="http://www.w3.org/2000/svg">
<path d="M0.112 23V0.599998H4.336V9.848H12.656V0.599998H16.88V23H12.656V13.688H4.336V23H0.112ZM26.168 23.448C25.0373 23.448 24.024 23.256 23.128 22.872C22.232 22.4667 21.5173 21.8907 20.984 21.144C20.472 20.376 20.216 19.448 20.216 18.36C20.216 17.272 20.472 16.3653 20.984 15.64C21.5173 14.8933 22.2427 14.3387 23.16 13.976C24.0987 13.592 25.1653 13.4 26.36 13.4H30.712V12.504C30.712 11.7573 30.4773 11.1493 30.008 10.68C29.5387 10.1893 28.792 9.944 27.768 9.944C26.7653 9.944 26.0187 10.1787 25.528 10.648C25.0373 11.096 24.7173 11.6827 24.568 12.408L20.856 11.16C21.112 10.3493 21.5173 9.61333 22.072 8.952C22.648 8.26933 23.4053 7.72533 24.344 7.32C25.304 6.89333 26.4667 6.68 27.832 6.68C29.9227 6.68 31.576 7.20267 32.792 8.248C34.008 9.29333 34.616 10.808 34.616 12.792V18.712C34.616 19.352 34.9147 19.672 35.512 19.672H36.792V23H34.104C33.3147 23 32.664 22.808 32.152 22.424C31.64 22.04 31.384 21.528 31.384 20.888V20.856H30.776C30.6907 21.112 30.4987 21.4533 30.2 21.88C29.9013 22.2853 29.432 22.648 28.792 22.968C28.152 23.288 27.2773 23.448 26.168 23.448ZM26.872 20.184C28.0027 20.184 28.92 19.8747 29.624 19.256C30.3493 18.616 30.712 17.7733 30.712 16.728V16.408H26.648C25.9013 16.408 25.3147 16.568 24.888 16.888C24.4613 17.208 24.248 17.656 24.248 18.232C24.248 18.808 24.472 19.2773 24.92 19.64C25.368 20.0027 26.0187 20.184 26.872 20.184ZM46.8835 23.448C45.3475 23.448 43.9502 23.128 42.6915 22.488C41.4542 21.848 40.4728 20.92 39.7475 19.704C39.0222 18.488 38.6595 17.016 38.6595 15.288V14.84C38.6595 13.112 39.0222 11.64 39.7475 10.424C40.4728 9.208 41.4542 8.28 42.6915 7.64C43.9502 7 45.3475 6.68 46.8835 6.68C48.3982 6.68 49.6995 6.94667 50.7875 7.48C51.8755 8.01333 52.7502 8.74933 53.4115 9.688C54.0942 10.6053 54.5422 11.6507 54.7555 12.824L50.8515 13.656C50.7662 13.016 50.5742 12.44 50.2755 11.928C49.9768 11.416 49.5502 11.0107 48.9955 10.712C48.4622 10.4133 47.7902 10.264 46.9795 10.264C46.1688 10.264 45.4328 10.4453 44.7715 10.808C44.1315 11.1493 43.6195 11.672 43.2355 12.376C42.8728 13.0587 42.6915 13.9013 42.6915 14.904V15.224C42.6915 16.2267 42.8728 17.08 43.2355 17.784C43.6195 18.4667 44.1315 18.9893 44.7715 19.352C45.4328 19.6933 46.1688 19.864 46.9795 19.864C48.1955 19.864 49.1128 19.5547 49.7315 18.936C50.3715 18.296 50.7768 17.464 50.9475 16.44L54.8515 17.368C54.5742 18.4987 54.0942 19.5333 53.4115 20.472C52.7502 21.3893 51.8755 22.1147 50.7875 22.648C49.6995 23.1813 48.3982 23.448 46.8835 23.448ZM58.1775 23V0.599998H62.2095V12.984H62.7855L68.0335 7.128H73.2815L65.9535 14.808L73.5375 23H68.3535L62.7855 16.696H62.2095V23H58.1775ZM135.325 23.448C133.021 23.448 131.187 22.8187 129.821 21.56C128.477 20.3013 127.805 18.5413 127.805 16.28V14.168H132.029V16.28C132.029 17.2827 132.307 18.072 132.861 18.648C133.416 19.2027 134.195 19.48 135.197 19.48C136.136 19.48 136.861 19.2027 137.373 18.648C137.907 18.0933 138.173 17.304 138.173 16.28V4.44H134.333V0.599998H144.957V4.44H142.397V16.28C142.397 18.6053 141.768 20.3867 140.509 21.624C139.251 22.84 137.523 23.448 135.325 23.448ZM154.886 23.448C153.307 23.448 151.888 23.128 150.63 22.488C149.371 21.848 148.379 20.92 147.654 19.704C146.928 18.488 146.566 17.0267 146.566 15.32V14.808C146.566 13.1013 146.928 11.64 147.654 10.424C148.379 9.208 149.371 8.28 150.63 7.64C151.888 7 153.307 6.68 154.886 6.68C156.464 6.68 157.883 7 159.142 7.64C160.4 8.28 161.392 9.208 162.118 10.424C162.843 11.64 163.206 13.1013 163.206 14.808V15.32C163.206 17.0267 162.843 18.488 162.118 19.704C161.392 20.92 160.4 21.848 159.142 22.488C157.883 23.128 156.464 23.448 154.886 23.448ZM154.886 19.864C156.123 19.864 157.147 19.4693 157.958 18.68C158.768 17.8693 159.174 16.7173 159.174 15.224V14.904C159.174 13.4107 158.768 12.2693 157.958 11.48C157.168 10.6693 156.144 10.264 154.886 10.264C153.648 10.264 152.624 10.6693 151.814 11.48C151.003 12.2693 150.598 13.4107 150.598 14.904V15.224C150.598 16.7173 151.003 17.8693 151.814 18.68C152.624 19.4693 153.648 19.864 154.886 19.864ZM176.464 23.448C175.034 23.448 173.936 23.2027 173.168 22.712C172.4 22.2213 171.834 21.6773 171.472 21.08H170.896V23H166.928V0.599998H170.96V8.952H171.536C171.77 8.568 172.08 8.20533 172.464 7.864C172.869 7.52267 173.392 7.24533 174.032 7.032C174.693 6.79733 175.504 6.68 176.464 6.68C177.744 6.68 178.928 7 180.016 7.64C181.104 8.25867 181.978 9.176 182.64 10.392C183.301 11.608 183.632 13.08 183.632 14.808V15.32C183.632 17.048 183.301 18.52 182.64 19.736C181.978 20.952 181.104 21.88 180.016 22.52C178.928 23.1387 177.744 23.448 176.464 23.448ZM175.248 19.928C176.485 19.928 177.52 19.5333 178.352 18.744C179.184 17.9333 179.6 16.76 179.6 15.224V14.904C179.6 13.368 179.184 12.2053 178.352 11.416C177.541 10.6053 176.506 10.2 175.248 10.2C174.01 10.2 172.976 10.6053 172.144 11.416C171.312 12.2053 170.896 13.368 170.896 14.904V15.224C170.896 16.76 171.312 17.9333 172.144 18.744C172.976 19.5333 174.01 19.928 175.248 19.928Z" fill="white"/>
<path d="M82.32 23C81.2747 23 80.4213 22.68 79.76 22.04C79.12 21.3787 78.8 20.504 78.8 19.416V10.456H74.832V7.128H78.8V2.2H82.832V7.128H87.184V10.456H82.832V18.712C82.832 19.352 83.1307 19.672 83.728 19.672H86.8V23H82.32ZM90.8338 23V0.599998H94.8658V9.08H95.4418C95.6124 8.73867 95.8791 8.39733 96.2418 8.056C96.6044 7.71467 97.0844 7.43733 97.6818 7.224C98.3004 6.98933 99.0791 6.872 100.018 6.872C101.255 6.872 102.332 7.16 103.25 7.736C104.188 8.29067 104.914 9.06933 105.426 10.072C105.938 11.0533 106.194 12.2053 106.194 13.528V23H102.162V13.848C102.162 12.6533 101.863 11.7573 101.266 11.16C100.69 10.5627 99.8578 10.264 98.7698 10.264C97.5324 10.264 96.5724 10.68 95.8898 11.512C95.2071 12.3227 94.8658 13.464 94.8658 14.936V23H90.8338ZM117.785 23.448C116.206 23.448 114.809 23.1173 113.593 22.456C112.398 21.7733 111.459 20.824 110.777 19.608C110.115 18.3707 109.785 16.92 109.785 15.256V14.872C109.785 13.208 110.115 11.768 110.777 10.552C111.438 9.31467 112.366 8.36533 113.561 7.704C114.755 7.02133 116.142 6.68 117.72 6.68C119.278 6.68 120.633 7.032 121.785 7.736C122.937 8.41867 123.833 9.37867 124.472 10.616C125.113 11.832 125.433 13.2507 125.433 14.872V16.248H113.881C113.923 17.336 114.329 18.2213 115.097 18.904C115.865 19.5867 116.803 19.928 117.913 19.928C119.043 19.928 119.875 19.6827 120.409 19.192C120.942 18.7013 121.347 18.1573 121.625 17.56L124.921 19.288C124.622 19.8427 124.185 20.4507 123.609 21.112C123.054 21.752 122.307 22.3067 121.369 22.776C120.43 23.224 119.235 23.448 117.785 23.448ZM113.913 13.24H121.337C121.251 12.3227 120.878 11.5867 120.217 11.032C119.577 10.4773 118.734 10.2 117.689 10.2C116.601 10.2 115.737 10.4773 115.097 11.032C114.457 11.5867 114.062 12.3227 113.913 13.24Z" fill="#005F70"/>
</svg>
