<svg width="48" height="48" viewBox="0 0 48 48" fill="none" xmlns="http://www.w3.org/2000/svg">
<circle opacity="0.1" cx="24" cy="24" r="24" fill="white"/>
<g clip-path="url(#clip0_1_371)">
<path d="M34.1603 17.9675C33.3969 18.3051 32.5873 18.5269 31.7583 18.6255C32.6321 18.1029 33.2861 17.2805 33.5983 16.3114C32.7783 16.7994 31.8793 17.1414 30.9423 17.3264C30.313 16.653 29.4787 16.2064 28.5693 16.056C27.6599 15.9057 26.7263 16.0599 25.9136 16.4949C25.1009 16.9299 24.4547 17.6211 24.0755 18.4612C23.6962 19.3014 23.6051 20.2432 23.8163 21.1405C22.1535 21.0571 20.5267 20.625 19.0416 19.8721C17.5566 19.1193 16.2465 18.0625 15.1963 16.7705C14.8246 17.4089 14.6293 18.1347 14.6303 18.8734C14.6303 20.3235 15.3683 21.6045 16.4903 22.3545C15.8264 22.3335 15.177 22.1542 14.5963 21.8315V21.8834C14.5965 22.8492 14.9307 23.7851 15.5422 24.5325C16.1537 25.28 17.0048 25.7929 17.9513 25.9845C17.335 26.1515 16.6887 26.1761 16.0613 26.0564C16.3282 26.8877 16.8484 27.6146 17.5489 28.1356C18.2495 28.6565 19.0955 28.9452 19.9683 28.9614C19.1008 29.6428 18.1075 30.1464 17.0452 30.4436C15.9829 30.7408 14.8725 30.8257 13.7773 30.6934C15.689 31.9229 17.9144 32.5756 20.1873 32.5734C27.8803 32.5734 32.0873 26.2005 32.0873 20.6735C32.0873 20.4935 32.0823 20.3115 32.0743 20.1335C32.8932 19.5416 33.5999 18.8085 34.1613 17.9685L34.1603 17.9675Z" fill="white"/>
</g>
<defs>
<clipPath id="clip0_1_371">
<rect width="24" height="24" fill="white" transform="translate(12 12)"/>
</clipPath>
</defs>
</svg>
